<?xml version="1.0" encoding="UTF-8" standalone="no"?>
<!-- Created with Inkscape (http://www.inkscape.org/) -->

<svg
   xmlns:dc="http://purl.org/dc/elements/1.1/"
   xmlns:cc="http://creativecommons.org/ns#"
   xmlns:rdf="http://www.w3.org/1999/02/22-rdf-syntax-ns#"
   xmlns:svg="http://www.w3.org/2000/svg"
   xmlns="http://www.w3.org/2000/svg"
   xmlns:sodipodi="http://sodipodi.sourceforge.net/DTD/sodipodi-0.dtd"
   xmlns:inkscape="http://www.inkscape.org/namespaces/inkscape"
   version="1.1"
   id="svg10"
   width="206.31848"
   height="172.30078"
   viewBox="0 0 206.31848 172.30078"
   sodipodi:docname="logo.svg"
   inkscape:version="0.92.4 (f8dce91, 2019-08-02)">
  <metadata
     id="metadata16">
    <rdf:RDF>
      <cc:Work
         rdf:about="">
        <dc:format>image/svg+xml</dc:format>
        <dc:type
           rdf:resource="http://purl.org/dc/dcmitype/StillImage" />
        <dc:title></dc:title>
      </cc:Work>
    </rdf:RDF>
  </metadata>
  <defs
     id="defs14" />
  <sodipodi:namedview
     pagecolor="#ffffff"
     bordercolor="#666666"
     borderopacity="1"
     objecttolerance="10"
     gridtolerance="10"
     guidetolerance="10"
     inkscape:pageopacity="0"
     inkscape:pageshadow="2"
     inkscape:window-width="1366"
     inkscape:window-height="702"
     id="namedview12"
     showgrid="false"
     inkscape:showpageshadow="false"
     showborder="false"
     inkscape:pagecheckerboard="true"
     inkscape:zoom="2.0081833"
     inkscape:cx="122.93438"
     inkscape:cy="97.420599"
     inkscape:window-x="0"
     inkscape:window-y="0"
     inkscape:window-maximized="1"
     inkscape:current-layer="svg10"
     fit-margin-top="0"
     fit-margin-left="0"
     fit-margin-right="0"
     fit-margin-bottom="0" />
  <path
     style="fill:none;stroke:#ededed;stroke-width:1px;stroke-linecap:butt;stroke-linejoin:miter;stroke-opacity:1"
     d="m 62.57066,0.5 35.35547,62.74414 -4.73047,7.2207 H 40.16245 L 0.57456032,143.66406 17.2562,171.80078 H 187.31089 L 205.73667,142.41992 125.5648,0.5 Z m 40.08594,73.94726 38.59374,67.47461 -75.93945,0.25 z"
     id="path3724"
     inkscape:export-xdpi="96"
     inkscape:export-ydpi="96"
     inkscape:connector-curvature="0" />
  <path
     style="fill:#e6e6e6;stroke-width:0.4979625"
     d="M 17.307609,170.86389 C 17.042612,170.52075 13.296494,164.2538 8.9829026,156.93732 L 1.1400084,143.63463 20.742942,107.39005 40.345875,71.145464 l 26.629257,-0.128768 26.629257,-0.128769 2.365322,-3.70992 c 1.300927,-2.040456 2.365322,-3.825467 2.365322,-3.966695 0,-0.252327 -32.036085,-57.2471523 -33.956387,-60.4112031 l -0.982217,-1.6183781 31.038781,0.013394 31.03878,0.013394 39.71251,70.3631052 c 21.84188,38.699706 39.71075,70.569506 39.70859,70.821776 -0.002,0.25226 -4.00791,6.84503 -8.90168,14.6506 l -8.89775,14.19193 -84.65312,0.12592 c -67.35674,0.10019 -84.751563,-0.001 -85.134931,-0.49796 z M 141.52387,141.73165 c -0.5303,-1.84811 -38.4852,-67.486071 -38.95616,-67.369518 -0.27388,0.06778 -8.297032,14.273289 -17.82924,31.567788 -9.532202,17.29451 -17.993258,32.62099 -18.802342,34.05886 l -1.471061,2.6143 H 103.1195 c 36.57702,0 38.64099,-0.0468 38.40437,-0.87143 z"
     id="path26"
     inkscape:connector-curvature="0" />
</svg>
